{
	"asset":{
		"generator":"Khronos glTF Blender I/O v4.1.63",
		"version":"2.0"
	},
	"scene":0,
	"scenes":[
		{
			"name":"Scene",
			"nodes":[
				4,
				5,
				7
			]
		}
	],
	"nodes":[
		{
			"mesh":0,
			"name":"Icosphere",
			"scale":[
				0.43842417001724243,
				0.43842417001724243,
				0.43842417001724243
			],
			"translation":[
				3,
				0.5,
				0.03718757629394531
			]
		},
		{
			"mesh":1,
			"name":"Torus",
			"scale":[
				0.5021906495094299,
				0.5021906495094299,
				0.5021906495094299
			],
			"translation":[
				3,
				-0.699999988079071,
				0.03718757629394531
			]
		},
		{
			"children":[
				0,
				1
			],
			"mesh":2,
			"name":"Sphere",
			"translation":[
				3.15303373336792,
				0,
				-0.03718757629394531
			]
		},
		{
			"children":[
				2
			],
			"mesh":3,
			"name":"Suzanne",
			"translation":[
				2.84696626663208,
				0,
				0
			]
		},
		{
			"children":[
				3
			],
			"mesh":4,
			"name":"Cube"
		},
		{
			"camera":0,
			"name":"Camera",
			"rotation":[
				-0.20997299253940582,
				0.3857799470424652,
				0.09062844514846802,
				0.8937962055206299
			],
			"translation":[
				7.358891487121582,
				4.958309173583984,
				6.925790786743164
			]
		},
		{
			"mesh":5,
			"name":"Cylinder",
			"translation":[
				3,
				0.03173470497131348,
				0
			]
		},
		{
			"children":[
				6
			],
			"mesh":6,
			"name":"Cone",
			"translation":[
				0,
				2.571906089782715,
				0
			]
		}
	],
	"cameras":[
		{
			"name":"Camera",
			"perspective":{
				"aspectRatio":1.7777777777777777,
				"yfov":0.39959652046304894,
				"zfar":100,
				"znear":0.10000000149011612
			},
			"type":"perspective"
		}
	],
	"materials":[
		{
			"doubleSided":true,
			"name":"Material",
			"pbrMetallicRoughness":{
				"baseColorFactor":[
					0.800000011920929,
					0.800000011920929,
					0.800000011920929,
					1
				],
				"metallicFactor":0,
				"roughnessFactor":0.5
			}
		}
	],
	"meshes":[
		{
			"name":"Icosphere",
			"primitives":[
				{
					"attributes":{
						"POSITION":0,
						"NORMAL":1,
						"TEXCOORD_0":2
					},
					"indices":3
				}
			]
		},
		{
			"name":"Torus",
			"primitives":[
				{
					"attributes":{
						"POSITION":4,
						"NORMAL":5,
						"TEXCOORD_0":6
					},
					"indices":7
				}
			]
		},
		{
			"name":"Sphere",
			"primitives":[
				{
					"attributes":{
						"POSITION":8,
						"NORMAL":9,
						"TEXCOORD_0":10
					},
					"indices":11
				}
			]
		},
		{
			"name":"Suzanne",
			"primitives":[
				{
					"attributes":{
						"POSITION":12,
						"NORMAL":13,
						"TEXCOORD_0":14
					},
					"indices":15
				}
			]
		},
		{
			"name":"Cube",
			"primitives":[
				{
					"attributes":{
						"POSITION":16,
						"NORMAL":17,
						"TEXCOORD_0":18
					},
					"indices":19,
					"material":0
				}
			]
		},
		{
			"name":"Cylinder",
			"primitives":[
				{
					"attributes":{
						"POSITION":20,
						"NORMAL":21,
						"TEXCOORD_0":22
					},
					"indices":23
				}
			]
		},
		{
			"name":"Cone",
			"primitives":[
				{
					"attributes":{
						"POSITION":24,
						"NORMAL":25,
						"TEXCOORD_0":26
					},
					"indices":27
				}
			]
		}
	],
	"accessors":[
		{
			"bufferView":0,
			"componentType":5126,
			"count":240,
			"max":[
				0.9510578513145447,
				1,
				0.9999999403953552
			],
			"min":[
				-0.9510578513145447,
				-1,
				-0.9999999403953552
			],
			"type":"VEC3"
		},
		{
			"bufferView":1,
			"componentType":5126,
			"count":240,
			"type":"VEC3"
		},
		{
			"bufferView":2,
			"componentType":5126,
			"count":240,
			"type":"VEC2"
		},
		{
			"bufferView":3,
			"componentType":5123,
			"count":240,
			"type":"SCALAR"
		},
		{
			"bufferView":4,
			"componentType":5126,
			"count":2304,
			"max":[
				1.25,
				0.25,
				1.25
			],
			"min":[
				-1.25,
				-0.25,
				-1.25
			],
			"type":"VEC3"
		},
		{
			"bufferView":5,
			"componentType":5126,
			"count":2304,
			"type":"VEC3"
		},
		{
			"bufferView":6,
			"componentType":5126,
			"count":2304,
			"type":"VEC2"
		},
		{
			"bufferView":7,
			"componentType":5123,
			"count":3456,
			"type":"SCALAR"
		},
		{
			"bufferView":8,
			"componentType":5126,
			"count":559,
			"max":[
				0.9999997019767761,
				1,
				0.9999993443489075
			],
			"min":[
				-0.9999990463256836,
				-1,
				-1
			],
			"type":"VEC3"
		},
		{
			"bufferView":9,
			"componentType":5126,
			"count":559,
			"type":"VEC3"
		},
		{
			"bufferView":10,
			"componentType":5126,
			"count":559,
			"type":"VEC2"
		},
		{
			"bufferView":11,
			"componentType":5123,
			"count":2880,
			"type":"SCALAR"
		},
		{
			"bufferView":12,
			"componentType":5126,
			"count":555,
			"max":[
				1.3671875,
				0.984375,
				0.8515625
			],
			"min":[
				-1.3671875,
				-0.984375,
				-0.8515625
			],
			"type":"VEC3"
		},
		{
			"bufferView":13,
			"componentType":5126,
			"count":555,
			"type":"VEC3"
		},
		{
			"bufferView":14,
			"componentType":5126,
			"count":555,
			"type":"VEC2"
		},
		{
			"bufferView":15,
			"componentType":5123,
			"count":2904,
			"type":"SCALAR"
		},
		{
			"bufferView":16,
			"componentType":5126,
			"count":24,
			"max":[
				1,
				1,
				1
			],
			"min":[
				-1,
				-1,
				-1
			],
			"type":"VEC3"
		},
		{
			"bufferView":17,
			"componentType":5126,
			"count":24,
			"type":"VEC3"
		},
		{
			"bufferView":18,
			"componentType":5126,
			"count":24,
			"type":"VEC2"
		},
		{
			"bufferView":19,
			"componentType":5123,
			"count":36,
			"type":"SCALAR"
		},
		{
			"bufferView":20,
			"componentType":5126,
			"count":192,
			"max":[
				1,
				1,
				1
			],
			"min":[
				-1,
				-1,
				-1
			],
			"type":"VEC3"
		},
		{
			"bufferView":21,
			"componentType":5126,
			"count":192,
			"type":"VEC3"
		},
		{
			"bufferView":22,
			"componentType":5126,
			"count":192,
			"type":"VEC2"
		},
		{
			"bufferView":23,
			"componentType":5123,
			"count":372,
			"type":"SCALAR"
		},
		{
			"bufferView":24,
			"componentType":5126,
			"count":128,
			"max":[
				1,
				1,
				1
			],
			"min":[
				-1,
				-1,
				-1
			],
			"type":"VEC3"
		},
		{
			"bufferView":25,
			"componentType":5126,
			"count":128,
			"type":"VEC3"
		},
		{
			"bufferView":26,
			"componentType":5126,
			"count":128,
			"type":"VEC2"
		},
		{
			"bufferView":27,
			"componentType":5123,
			"count":186,
			"type":"SCALAR"
		}
	],
	"bufferViews":[
		{
			"buffer":0,
			"byteLength":2880,
			"byteOffset":0,
			"target":34962
		},
		{
			"buffer":0,
			"byteLength":2880,
			"byteOffset":2880,
			"target":34962
		},
		{
			"buffer":0,
			"byteLength":1920,
			"byteOffset":5760,
			"target":34962
		},
		{
			"buffer":0,
			"byteLength":480,
			"byteOffset":7680,
			"target":34963
		},
		{
			"buffer":0,
			"byteLength":27648,
			"byteOffset":8160,
			"target":34962
		},
		{
			"buffer":0,
			"byteLength":27648,
			"byteOffset":35808,
			"target":34962
		},
		{
			"buffer":0,
			"byteLength":18432,
			"byteOffset":63456,
			"target":34962
		},
		{
			"buffer":0,
			"byteLength":6912,
			"byteOffset":81888,
			"target":34963
		},
		{
			"buffer":0,
			"byteLength":6708,
			"byteOffset":88800,
			"target":34962
		},
		{
			"buffer":0,
			"byteLength":6708,
			"byteOffset":95508,
			"target":34962
		},
		{
			"buffer":0,
			"byteLength":4472,
			"byteOffset":102216,
			"target":34962
		},
		{
			"buffer":0,
			"byteLength":5760,
			"byteOffset":106688,
			"target":34963
		},
		{
			"buffer":0,
			"byteLength":6660,
			"byteOffset":112448,
			"target":34962
		},
		{
			"buffer":0,
			"byteLength":6660,
			"byteOffset":119108,
			"target":34962
		},
		{
			"buffer":0,
			"byteLength":4440,
			"byteOffset":125768,
			"target":34962
		},
		{
			"buffer":0,
			"byteLength":5808,
			"byteOffset":130208,
			"target":34963
		},
		{
			"buffer":0,
			"byteLength":288,
			"byteOffset":136016,
			"target":34962
		},
		{
			"buffer":0,
			"byteLength":288,
			"byteOffset":136304,
			"target":34962
		},
		{
			"buffer":0,
			"byteLength":192,
			"byteOffset":136592,
			"target":34962
		},
		{
			"buffer":0,
			"byteLength":72,
			"byteOffset":136784,
			"target":34963
		},
		{
			"buffer":0,
			"byteLength":2304,
			"byteOffset":136856,
			"target":34962
		},
		{
			"buffer":0,
			"byteLength":2304,
			"byteOffset":139160,
			"target":34962
		},
		{
			"buffer":0,
			"byteLength":1536,
			"byteOffset":141464,
			"target":34962
		},
		{
			"buffer":0,
			"byteLength":744,
			"byteOffset":143000,
			"target":34963
		},
		{
			"buffer":0,
			"byteLength":1536,
			"byteOffset":143744,
			"target":34962
		},
		{
			"buffer":0,
			"byteLength":1536,
			"byteOffset":145280,
			"target":34962
		},
		{
			"buffer":0,
			"byteLength":1024,
			"byteOffset":146816,
			"target":34962
		},
		{
			"buffer":0,
			"byteLength":372,
			"byteOffset":147840,
			"target":34963
		}
	],
	"buffers":[
		{
			"byteLength":148212,
			"uri":"hirarchy_separate.bin"
		}
	]
}
